<svg width="131" height="43" viewBox="0 0 131 43" fill="none" xmlns="http://www.w3.org/2000/svg">
<g clip-path="url(#clip0_447_9191)">
<path d="M101.394 7.55595C102.609 7.56771 103.825 7.56464 105.04 7.54688L105.035 20.388L105.02 20.4668C104.776 20.5585 101.855 20.5016 101.376 20.4994C99.7921 18.1796 98.2141 15.7159 96.656 13.3679L96.6675 20.5116C95.4962 20.4767 94.1785 20.4941 93.0027 20.5114C93.0142 19.9164 93.0149 19.3007 93.0059 18.7051C92.9503 15.0008 93.0878 11.2511 92.9931 7.55141C93.995 7.61818 95.5084 7.55001 96.5953 7.57301C97.1477 8.30156 97.8516 9.43988 98.3663 10.2294C99.3695 11.7786 100.382 13.3214 101.405 14.8576C101.304 12.6889 101.394 9.78243 101.394 7.55595Z" fill="white"/>
<path d="M54.5693 7.5498C55.9444 7.56137 57.3197 7.56476 58.6949 7.56009L61.3711 14.9269C62.0077 16.6907 62.717 18.7925 63.4177 20.5059C62.1339 20.4985 60.8501 20.4995 59.5663 20.5093C59.3338 19.8884 59.1812 19.2275 58.9463 18.6062C58.8887 18.4536 58.8925 18.4932 58.7475 18.418C57.2594 18.4253 55.7711 18.4233 54.283 18.4124C54.1315 19.0532 53.8554 19.8972 53.6216 20.5134C52.3545 20.4965 51.0873 20.4957 49.8203 20.5112C51.1383 16.6857 52.6403 12.8957 53.9851 9.07693C54.1628 8.57221 54.3505 8.03682 54.5693 7.5498ZM55.2253 15.606C55.736 15.615 56.2466 15.6215 56.7574 15.6252L57.9797 15.5975C57.7796 15.0833 56.7552 11.7786 56.5554 11.6615C56.1436 12.8508 55.686 14.4889 55.2253 15.606Z" fill="white"/>
<path d="M83.0375 7.55664L87.1793 7.55734C87.3551 8.15082 87.6224 8.86991 87.8519 9.44677C89.2866 13.0537 90.4151 16.933 91.8888 20.5098C90.6152 20.4888 89.3058 20.5038 88.0297 20.5039C87.7969 19.8855 87.6608 19.2075 87.4024 18.5953C87.3443 18.4561 87.3321 18.4865 87.1953 18.4219C85.7235 18.4317 84.2523 18.4266 82.7805 18.4068C82.6546 18.9789 82.2895 19.9357 82.0849 20.5187C80.8874 20.4746 79.4897 20.4917 78.2871 20.5116L81.5165 11.6555C81.863 10.7021 82.6335 8.38218 83.0375 7.55664ZM83.7504 15.6264L85.0023 15.624L86.4281 15.6086C86.2216 14.9858 85.3028 11.9516 85.0502 11.6131C84.7293 12.5496 83.9659 14.7071 83.7504 15.6264Z" fill="white"/>
<path d="M106.911 7.55996C110.068 7.57312 113.226 7.56839 116.383 7.5459C116.362 8.43042 116.375 9.35436 116.374 10.242C115.937 10.9667 115.019 12.1369 114.492 12.8491L111.017 17.5472C112.765 17.5822 114.621 17.5441 116.382 17.5488C116.369 18.5371 116.369 19.5256 116.383 20.5139C113.458 20.4315 109.861 20.4629 106.923 20.5147C106.916 19.6877 106.883 18.4957 106.962 17.7005C108.734 15.3205 110.446 12.8793 112.226 10.5019C110.799 10.4906 108.249 10.4081 106.923 10.5304C106.93 9.54024 106.925 8.55003 106.911 7.55996Z" fill="white"/>
<path d="M64.52 7.55063C65.7412 7.56615 66.9623 7.56456 68.1835 7.5459C68.1055 10.8757 68.1656 14.4166 68.1656 17.7616C69.5051 17.772 70.8452 17.7697 72.1846 17.7549C72.175 18.6776 72.1757 19.6003 72.1872 20.5229C69.9315 20.442 66.784 20.4617 64.5155 20.5163C64.4209 16.3865 64.495 11.6936 64.52 7.55063Z" fill="white"/>
<path d="M73.5137 7.55521C74.7348 7.56703 75.956 7.56358 77.1772 7.54492V20.5209C76.089 20.4668 74.6166 20.4876 73.5201 20.5167L73.5137 7.55521Z" fill="white"/>
<path d="M12.5772 29.9062C13.181 29.9888 15.8945 31.6402 16.4309 32.05C16.5242 32.7792 16.4932 34.1197 16.4962 34.8914C15.555 35.5672 13.7823 36.5164 12.7116 37.1258C12.3184 36.9955 9.63246 35.333 8.94828 34.9947C8.88639 34.0686 8.9142 33.0151 8.93249 32.081C9.36668 31.626 11.9067 30.2528 12.5772 29.9062Z" fill="#ED9E19"/>
<path d="M34.9177 23.3643C35.4248 23.4328 38.3627 25.1842 38.8703 25.5447C38.894 26.4748 38.8954 27.4307 38.9075 28.363C38.2335 28.8617 36.0415 30.092 35.2497 30.5044L35.0816 30.5667C34.5925 30.4354 32.0823 28.8307 31.3397 28.4846C31.3203 27.4899 31.3155 26.495 31.3251 25.5002C32.2578 24.8394 33.8798 23.9703 34.9177 23.3643Z" fill="#ED9E19"/>
<path d="M21.4631 29.9062C21.987 29.9698 24.9634 31.6901 25.302 32.1039C25.3551 32.9751 25.3427 34.0129 25.3543 34.8966C24.742 35.3812 22.3945 36.6851 21.6364 37.0795C21.3468 37.1124 18.3715 35.2366 17.7855 34.9853C17.7688 34.0277 17.767 33.07 17.7802 32.1123C18.2239 31.6938 20.8011 30.224 21.4631 29.9062Z" fill="#ED9E19"/>
<path d="M34.9761 10.6641C35.469 10.7792 38.3305 12.4985 38.859 12.8555C38.9107 13.6779 38.8948 14.813 38.9066 15.6586C38.3982 16.1003 35.8965 17.471 35.1878 17.85C35.1399 17.8552 35.081 17.8615 35.0108 17.869C33.9972 17.3566 32.2465 16.2978 31.3538 15.7787C31.3003 14.8363 31.3257 13.8024 31.3306 12.8521C32.1827 12.2354 34.0213 11.1977 34.9761 10.6641Z" fill="#ED9E19"/>
<path d="M30.2684 29.9646C30.8012 29.8693 33.7278 31.6576 34.1928 32.0483C34.2727 32.4915 34.2623 34.3315 34.2709 34.9021C33.3101 35.5637 31.6539 36.4515 30.5963 37.0575C30.5464 37.0655 30.4853 37.0753 30.4128 37.0869C29.4349 36.5811 27.5676 35.5083 26.7271 34.9391C26.6702 34.0896 26.6561 32.9465 26.7079 32.0952C27.1747 31.6503 29.6151 30.282 30.2684 29.9646Z" fill="#ED9E19"/>
<path d="M3.74454 16.9334C4.08394 16.8894 7.5093 18.8168 7.56985 19.2083C7.67227 19.8709 7.63966 21.2385 7.65584 21.9609C6.66419 22.6403 4.98654 23.5115 3.89885 24.1523C3.20379 23.862 1.01719 22.5211 0.321565 22.0743C-0.0385586 21.843 0.1089 19.7717 0.0823809 19.1129C0.769027 18.6027 2.97958 17.3153 3.74454 16.9334Z" fill="#ED9E19"/>
<path d="M26.0604 23.3779C26.5025 23.3885 29.3864 25.1527 29.9218 25.4985C29.9203 26.4794 29.9266 27.4603 29.9407 28.4411C28.9264 29.0992 27.284 30.0261 26.2053 30.5975C25.8627 30.4831 23.0653 28.7923 22.438 28.4775C22.4144 27.498 22.4153 26.4903 22.4062 25.5086C23.5345 24.7707 24.8744 24.0477 26.0604 23.3779Z" fill="#ED9E19"/>
<path d="M12.6271 16.9274C13.025 16.8905 15.4924 18.4437 15.9989 18.7356C16.1592 18.8281 16.482 19.0621 16.5059 19.2654C16.6052 20.1078 16.5541 21.1102 16.5651 21.9784C15.3495 22.6391 14.0853 23.3967 12.8679 24.0813C12.5706 24.1594 9.59837 22.3436 9.0732 22.0533C8.99341 21.1147 9.0278 19.9642 9.03516 19.0101C10.2394 18.3013 11.3995 17.5982 12.6271 16.9274Z" fill="#ED9E19"/>
<path d="M17.1949 23.3691C17.6433 23.3999 20.5062 25.1631 21.0626 25.5149C21.0638 26.4809 21.0728 27.4469 21.0898 28.4128C19.8842 29.1465 18.665 29.8576 17.4326 30.5456L17.3772 30.5716C17.0986 30.5669 14.1168 28.7724 13.5937 28.486C13.5225 27.708 13.5542 26.3346 13.5524 25.5062C14.7057 24.7614 15.996 24.0547 17.1949 23.3691Z" fill="#ED9E1A"/>
<path d="M17.2587 10.667C17.8557 10.8818 20.5028 12.457 21.0579 12.8432C21.0628 13.8068 21.0737 14.7704 21.0903 15.7339C19.834 16.4531 18.6637 17.2009 17.3592 17.8848C17.122 17.8942 14.0277 16.0437 13.5992 15.8034C13.5267 14.8877 13.5568 13.758 13.5581 12.8251C14.2936 12.2806 16.4037 11.1201 17.2587 10.667Z" fill="#ED9E1A"/>
<path d="M26.1124 10.668C26.5826 10.7746 29.4157 12.4799 29.9169 12.8304C29.9167 13.8021 29.9252 14.7738 29.9423 15.7453C28.7374 16.492 27.51 17.2018 26.2618 17.8737C25.9501 17.8878 22.9924 16.0694 22.4444 15.784C22.4059 14.8071 22.421 13.7797 22.4204 12.7986C23.6579 12.1198 24.8594 11.3476 26.1124 10.668Z" fill="#ED9E19"/>
<path d="M8.31285 23.3672C8.76366 23.408 11.6711 25.1769 12.1587 25.5017C12.2185 26.1478 12.1792 27.6863 12.201 28.4337C11.1083 29.0049 9.69527 29.8924 8.58912 30.5307C8.57243 30.538 8.56322 30.5427 8.54468 30.5481C8.22078 30.6448 5.23361 28.7534 4.6968 28.491C4.64096 27.5377 4.66527 26.4576 4.66629 25.4944C5.82464 24.7674 7.11936 24.0694 8.31285 23.3672Z" fill="#ED9E19"/>
<path d="M21.5374 16.9342C21.8055 16.8945 25.3141 18.818 25.3579 19.2352C25.4311 19.9327 25.4006 21.2176 25.4181 21.9701C24.1867 22.7029 22.946 23.4201 21.6964 24.1214C21.4866 24.1615 18.3956 22.2519 17.9185 22.0354C17.8664 21.0578 17.8888 20.0279 17.8941 19.0455C19.0883 18.3074 20.3032 17.6034 21.5374 16.9342Z" fill="#ED9E19"/>
<path d="M30.4097 16.9275C30.722 16.8851 33.9634 18.7964 34.2966 19.114C34.2844 20.0629 34.3088 21.0242 34.3039 21.9764C33.1589 22.6463 31.8085 23.4725 30.6482 24.0846C30.342 24.1577 27.3401 22.318 26.8181 22.0326C26.7678 21.1123 26.7908 19.9762 26.7881 19.0366C27.9228 18.3107 29.2345 17.5942 30.4097 16.9275Z" fill="#ED9E1A"/>
<path d="M21.605 4.39648C22.2675 4.60909 24.6909 6.09444 25.3996 6.53084C25.4025 7.5052 25.3925 8.50256 25.4499 9.47359L21.7 11.6143C21.5394 11.618 18.403 9.75953 17.9196 9.49781C17.8776 8.58345 17.8987 7.46468 17.893 6.53493C18.8121 5.95087 20.6595 4.8634 21.605 4.39648Z" fill="#ED9E1A"/>
<path d="M8.34324 10.6709C8.92755 10.8425 11.5668 12.4312 12.1401 12.8208C12.2046 13.5468 12.1839 14.9676 12.1978 15.7589C11.1061 16.3285 9.58666 17.2624 8.48991 17.8988C8.20002 17.8721 5.17138 16.064 4.70684 15.7709C4.62632 14.9217 4.66821 13.6817 4.67626 12.8088C5.89588 12.0668 7.13741 11.4035 8.34324 10.6709Z" fill="#ED9E19"/>
<path d="M30.4942 4.41309C30.9955 4.53298 33.7299 6.16879 34.2922 6.53429C34.289 7.51702 34.298 8.49975 34.3192 9.48223C33.0812 10.1653 31.839 10.9457 30.597 11.604C30.3749 11.6046 27.321 9.78082 26.8108 9.50063C26.7745 8.56563 26.7922 7.48833 26.7871 6.54247C27.3561 6.12775 29.8368 4.72483 30.4942 4.41309Z" fill="#ED9E1A"/>
<path d="M12.7309 4.42773C13.3702 4.60769 15.8589 6.11906 16.5574 6.54723C16.5558 7.52574 16.5492 8.49307 16.5876 9.47133C15.5466 9.98346 13.8724 11.0134 12.8203 11.6117C12.3589 11.4614 9.62266 9.82596 9.06911 9.50424L9.03516 6.52864C9.58769 6.162 12.2342 4.57106 12.7309 4.42773Z" fill="#ED9E1A"/>
<path d="M39.4172 16.8633C40.4613 17.5122 41.7573 18.1183 42.7432 18.8318C42.8705 19.7474 42.8965 21.1046 42.9295 22.0494C42.3485 22.5693 40.2217 23.6871 39.4555 24.1128C39.3729 24.1587 39.3561 24.1299 39.2718 24.0913C38.1178 23.402 36.8678 22.6554 35.6751 22.0362C35.6497 21.0391 35.6391 20.0417 35.6436 19.0443C36.8575 18.2786 38.1631 17.5677 39.4172 16.8633Z" fill="#ED9E1A"/>
<path d="M26.0796 36.4141C26.5323 36.4782 29.7519 38.1928 29.885 38.6952C29.9682 39.0093 29.9351 40.7309 29.9399 41.168C28.7618 41.7926 27.4519 42.1028 26.1683 42.4405L24.7084 42.7399C24.3005 42.5789 22.9459 41.7676 22.4422 41.5061C22.4023 40.5735 22.4163 39.4946 22.4121 38.5541C22.9326 38.1759 25.5907 36.6012 26.0796 36.4141Z" fill="#EEA01B"/>
<path d="M58.1444 23.5375C58.6023 23.4393 59.4002 23.6055 59.8077 23.8465C60.945 24.526 60.9939 25.7619 60.9806 26.9405C60.9581 28.951 60.7439 29.7158 58.7674 30.2138C57.4124 30.3309 55.8948 29.6678 55.8908 28.1031C55.8854 26.0032 55.3697 23.812 58.1444 23.5375ZM57.0779 25.2659C56.9722 26.0781 57.0215 27.5047 57.0381 28.3781C57.5266 29.1964 57.9569 29.1672 58.833 29.1909C59.8651 28.5542 59.7787 28.4139 59.7699 27.2269C59.7586 25.6995 60.0616 24.3975 57.9625 24.6272C57.4847 24.7516 57.386 24.8862 57.0779 25.2659Z" fill="#E79311"/>
<path d="M116.069 23.5326C116.597 23.4541 117.384 23.5917 117.841 23.8666C119.032 24.5949 118.892 25.8405 118.905 27.018C118.925 28.9867 118.739 29.741 116.724 30.2203C115.391 30.2596 113.947 29.7322 113.872 28.1708C113.771 26.0606 113.391 23.8986 116.069 23.5326ZM115.853 29.1532L116.887 29.1842C117.287 28.8839 117.719 28.6632 117.733 28.116C117.751 27.3604 117.921 25.6955 117.531 25.0474C117.431 24.8819 117.059 24.6889 116.895 24.6016C116.571 24.6021 116.216 24.5949 115.895 24.6207C115.047 24.9522 114.937 25.6677 114.987 26.4889C115.06 27.7032 114.644 28.4888 115.853 29.1532Z" fill="#E79311"/>
<path d="M120.276 23.6267C121.249 23.6701 122.941 23.5186 123.802 23.7758C125.381 24.2465 125.481 26.7059 123.905 27.4713C124.33 28.2816 124.91 29.2353 125.219 30.0715C124.87 30.0457 124.157 30.1326 123.954 30.0007C123.643 29.472 122.88 28.1339 122.687 27.5958L121.413 27.6094L121.432 30.0662C121.042 30.0461 120.664 30.0721 120.275 30.0924C120.276 28.0078 120.23 25.6818 120.276 23.6267ZM121.417 26.6792C122.08 26.691 123.028 26.7949 123.568 26.4491C123.876 26.1109 123.849 25.9158 123.835 25.4838C123.796 24.3147 122.145 24.7017 121.413 24.6483L121.417 26.6792Z" fill="#E79311"/>
<path d="M66.0485 23.583C66.3401 23.6224 66.8938 23.6216 67.2064 23.6302C67.1783 25.7761 67.1808 27.9223 67.2128 30.0681L66.1623 30.0737C65.2717 28.7928 64.2622 27.0745 63.4267 25.7182C63.477 27.132 63.482 28.6276 63.4892 30.0453C63.1325 30.0773 62.6407 30.074 62.2734 30.0824C62.2773 27.9828 62.2237 25.6968 62.2728 23.6215C62.6118 23.6265 62.962 23.6449 63.3017 23.6582C64.2008 24.6818 65.2365 26.7101 66.0479 27.9247C66.0402 26.4775 66.0402 25.0302 66.0485 23.583Z" fill="#E79311"/>
<path d="M3.70596 29.8955C4.34718 30.0399 6.95917 31.6215 7.53057 32.0358C7.57756 32.8798 7.54873 34.105 7.55518 34.9807C7.12816 35.181 6.26092 35.7213 5.85361 35.9892C5.80462 36.0181 5.72007 36.0323 5.66068 36.0462C4.8151 35.7175 2.50479 31.7772 2.01758 30.845C2.56876 30.5498 3.15419 30.2029 3.70596 29.8955Z" fill="#E79311"/>
<path d="M93.1448 23.5811L94.0693 23.6648C94.5341 24.1415 96.4062 27.2626 96.8914 28.0528C96.7974 26.8765 96.8537 24.8578 96.8505 23.6042C97.1811 23.6316 97.6651 23.6252 98.0071 23.6313C97.9592 25.7123 97.9962 27.9836 98.0148 30.072L96.9215 30.0456C96.0417 28.6697 95.0437 27.1584 94.2374 25.7479C94.3244 26.8834 94.2822 28.8392 94.3084 30.045L93.1429 30.0983C93.1262 27.926 93.1269 25.7535 93.1448 23.5811Z" fill="#E79311"/>
<path d="M101.546 23.5365C103.269 23.3347 104.101 24.2104 104.425 25.7744L103.353 25.7544C103.177 25.3922 102.987 24.9392 102.591 24.7696C100.434 23.8459 100.419 25.962 100.51 27.4423C100.543 27.9734 100.514 28.1447 100.698 28.6909C100.871 28.8568 101.142 29.0239 101.345 29.1606L102.285 29.1886C102.656 28.9422 102.904 28.772 103.213 28.4453C103.204 28.146 103.221 27.906 103.242 27.6074C102.76 27.5905 102.239 27.7515 101.92 27.4857C101.81 27.2973 101.862 27.074 101.886 26.8519L101.945 26.7654C102.182 26.6538 103.986 26.6647 104.358 26.6589L104.37 30.099C104.167 30.0691 103.941 30.0708 103.734 30.0665L103.41 29.505C102.925 29.9485 102.368 30.2249 101.69 30.2128C100.156 30.1854 99.3386 29.2251 99.37 27.7301C99.4115 25.7501 98.9761 23.883 101.546 23.5365Z" fill="#E79311"/>
<path d="M70.6117 23.5346C72.2171 23.2967 73.0572 24.2441 73.3321 25.6987L72.2708 25.6997C71.9965 25.1427 71.93 24.9639 71.432 24.6121C70.8239 24.5874 69.6354 24.486 69.7114 25.4808C69.7428 25.8929 70.6539 26.1839 70.9902 26.2976C72.4153 26.7798 74.0616 27.5424 73.0041 29.3006C72.6039 29.961 71.8686 30.0795 71.1589 30.2334C69.5177 30.2595 68.5363 29.6104 68.3496 27.9522L69.3592 28.0007L69.7549 28.7709C70.4352 29.2314 70.6954 29.1842 71.508 29.1683C72.9575 28.0455 71.3565 27.6281 70.3962 27.2333C69.5567 26.8885 69.1117 26.7473 68.6201 25.976L68.6162 25.9426C68.4519 24.4203 69.0772 23.6728 70.6117 23.5346Z" fill="#E79311"/>
<path d="M39.3792 29.8975C39.6729 29.9108 40.6655 30.3859 40.7598 30.668C40.6587 31.701 38.1783 35.0662 37.3078 35.8352C36.9751 35.6978 36.1725 35.21 35.8083 35.0061C35.7457 34.0739 35.758 32.9499 35.7901 32.0179C36.4804 31.5262 38.5701 30.3256 39.3792 29.8975Z" fill="#F1A41D"/>
<path d="M74.5772 23.5791C74.856 23.6235 75.4416 23.6247 75.7453 23.6337C75.6724 25.0684 75.6654 26.9815 75.7466 28.4347C75.7638 28.7431 76.1647 28.9671 76.4166 29.1349L77.4204 29.1948C77.8175 28.9312 77.9511 28.8092 78.2203 28.4211C78.3098 26.9871 78.2522 25.0466 78.251 23.5817C78.5604 23.6228 79.0847 23.6237 79.412 23.6338L79.396 24.5409C79.3794 25.5506 79.4043 26.5767 79.405 27.5863C79.4159 28.2698 79.3622 29.0251 78.836 29.5287C77.8987 30.4113 76.0746 30.49 75.1481 29.5573C74.4877 28.8919 74.5484 27.8955 74.5516 27.0315C74.5561 25.8806 74.5529 24.7298 74.5772 23.5791Z" fill="#E79311"/>
<path d="M110.125 23.538C110.168 23.5314 110.211 23.5266 110.254 23.5235C111.841 23.4155 112.65 24.4294 112.735 25.913C112.401 25.8939 111.976 25.9168 111.634 25.9257C111.63 25.9036 111.627 25.8815 111.622 25.8596C111.354 24.5195 110.658 24.4485 109.475 24.7276C109.337 24.887 109.136 25.1794 109.005 25.3589C109.001 26.2394 108.907 27.2897 109.007 28.1521C109.069 28.6838 109.316 28.8628 109.721 29.1377L110.691 29.1956C111.025 28.9765 111.207 28.84 111.438 28.5174L111.628 27.8579C111.963 27.8377 112.38 27.8487 112.722 27.8488C112.672 29.2969 111.984 30.1183 110.54 30.2082C107.937 30.3702 107.767 28.4796 107.841 26.4978C107.908 24.6912 108.1 23.6949 110.125 23.538Z" fill="#E79311"/>
<path d="M52.1223 23.5394C52.1516 23.5331 52.1811 23.5281 52.2108 23.5244C53.2784 23.3916 54.3501 24.1234 54.7002 25.0953C54.8263 25.4451 54.8938 25.5802 54.6445 25.8668C54.4134 25.9381 53.9053 25.9188 53.6417 25.9193C53.5556 25.4821 53.5184 25.3684 53.3339 24.9626L52.7732 24.608C52.5304 24.5903 52.1137 24.5739 51.8854 24.6333C51.5823 24.7151 51.3245 24.9144 51.1691 25.187C50.809 25.8234 50.9349 27.9534 51.1271 28.6654C51.3504 28.8761 51.4882 28.9686 51.7427 29.1411C52.0424 29.1674 52.4338 29.1649 52.7415 29.1712C53.0641 28.9744 53.2336 28.8699 53.4313 28.5518C53.6589 27.6509 53.9131 27.818 54.7571 27.8452C54.6226 29.3426 54.0847 30.0132 52.5585 30.2102C51.1528 30.3917 49.8587 29.456 49.8582 27.9909C49.8577 26.8526 49.6226 25.2178 50.3615 24.2853C50.801 23.7513 51.4735 23.5954 52.1223 23.5394Z" fill="#E79311"/>
<path d="M6.57251 5.91406C6.94468 6.09876 7.24908 6.29148 7.59958 6.50969C7.67195 6.97467 7.66652 8.88876 7.68301 9.46447C6.50154 10.152 5.06687 11.0291 3.86634 11.6328C3.46425 11.4052 3.06477 11.173 2.66797 10.9363C3.64179 8.95508 5.05513 7.46099 6.57251 5.91406Z" fill="#E99714"/>
<path d="M84.6719 23.6055C85.303 23.7113 88.7415 23.6375 89.4607 23.6305L89.4646 24.6564C88.8271 24.6601 88.1897 24.6564 87.5523 24.6455C87.6309 25.6248 87.5836 27.2287 87.5829 28.2546L87.606 30.0369C87.1981 30.0536 86.7901 30.0634 86.3816 30.0663L86.379 24.6578C85.8023 24.6463 85.1815 24.666 84.6016 24.6746C84.5907 24.3936 84.5549 23.836 84.6719 23.6055Z" fill="#E79311"/>
<path d="M36.3413 6.18066C37.022 6.28778 40.0571 10.4462 40.2073 11.1969C40.0834 11.4168 39.9714 11.4336 39.7344 11.5769C39.3183 11.6066 36.5358 9.85883 35.8393 9.5026C35.8183 8.5269 35.8106 7.55101 35.8162 6.57512C35.9669 6.44707 36.1784 6.30065 36.3413 6.18066Z" fill="#E79311"/>
<path d="M8.33393 36.4072C8.90692 36.5178 11.5539 38.1262 12.1559 38.5194C12.203 39.1425 12.1679 40.2087 12.1669 40.8643C11.8918 40.7688 11.5546 40.574 11.2909 40.4322C9.94159 39.8638 7.89309 38.2141 6.77734 37.2512C7.3123 36.9918 7.74047 36.6776 8.33393 36.4072Z" fill="#E79311"/>
<path d="M80.9353 23.5859C81.2294 23.6226 81.7786 23.6238 82.0919 23.6341C82.0638 24.8078 82.0567 25.9819 82.0695 27.1559C82.0708 27.6427 82.1021 28.6857 82.0197 29.1224C83.0292 29.113 84.1148 29.0832 85.1186 29.1214L85.1116 30.0323C83.8591 30.1507 82.253 29.9208 80.934 30.0993C80.9225 27.9282 80.9232 25.7571 80.9353 23.5859Z" fill="#E79311"/>
<path d="M2.04483 12.1152C2.37302 12.3324 2.8673 12.5738 3.27096 12.8362C3.34164 13.4155 3.31754 15.0749 3.32176 15.7324C2.62585 16.1732 1.98259 16.5318 1.26407 16.9282C0.976939 17.1242 0.563082 17.3404 0.251953 17.5142C0.651116 15.5874 1.12039 13.8676 2.04483 12.1152Z" fill="#EB9B17"/>
<path d="M34.9368 36.4062C35.301 36.4156 35.9249 36.8241 36.2488 37.0195C35.0543 38.1442 33.7391 39.1335 32.3273 39.9695L31.3328 40.5112C31.3218 39.8517 31.3214 39.1921 31.3316 38.5327C31.921 38.0803 34.2119 36.7984 34.9368 36.4062Z" fill="#E79311"/>
<path d="M90.3642 23.6035C90.6506 23.6371 91.2382 23.638 91.5483 23.6484C91.5905 24.8443 91.5093 26.2223 91.5432 27.4401C91.5585 27.9742 91.5892 29.5848 91.5189 30.0452C91.2689 30.0898 90.6231 30.083 90.3412 30.087L90.3367 25.8626C90.3354 25.2508 90.3009 24.1852 90.3642 23.6035Z" fill="#E79311"/>
<path d="M42.5825 24.208L42.6736 24.2977C42.6541 25.3704 41.9514 28.178 41.4711 29.0925L40.8149 28.6836L40.3581 28.4624C40.3276 27.5061 40.3446 26.4841 40.3446 25.5222C41.0764 25.0606 41.8228 24.6223 42.5825 24.208Z" fill="#E79311"/>
<path d="M111.955 33.4055C112.63 33.3935 114.075 33.1809 114.254 34.049C114.335 34.4467 114.267 34.5724 114.062 34.8867C114.137 35.5396 114.757 35.3721 114.192 36.3436C113.77 36.7099 112.597 36.6233 111.967 36.6556C111.979 35.5723 111.975 34.4888 111.955 33.4055ZM113.723 36.0383C113.81 35.8088 113.838 35.7542 113.808 35.5147C113.532 35.1332 113.029 35.2677 112.585 35.216L112.586 36.1397C112.889 36.1259 113.454 36.1208 113.723 36.0383ZM112.598 34.7737C113 34.7705 113.306 34.7978 113.678 34.6272C113.711 34.4044 113.749 34.2811 113.639 34.0821C113.371 33.8211 112.945 33.9189 112.586 33.868L112.598 34.7737Z" fill="white"/>
<path d="M71.7373 34.1917C72.1452 34.1763 72.3114 34.2134 72.6938 34.3309C72.9278 34.4026 72.8856 34.1999 73.1809 34.1846C73.3862 34.4459 73.2647 35.5422 73.296 35.9227C73.4022 37.2087 72.3229 37.999 71.3549 36.8926L71.3198 36.6809L71.4035 36.6052C71.6599 36.571 72.0205 36.8145 72.3658 36.905C72.6503 36.8392 72.876 36.5779 72.8242 36.2784C72.5397 36.1055 71.0186 37.0294 71.236 35.0076C71.2833 34.5686 71.417 34.4584 71.7373 34.1917ZM72.4796 35.9001C73.1739 35.3692 72.8696 34.6126 71.9674 34.6171C71.7341 35.0228 71.5877 35.6164 72.0384 35.9281C72.2417 35.9763 72.2782 35.965 72.4796 35.9001Z" fill="white"/>
<path d="M109.661 33.3291C109.827 33.3317 109.935 33.349 110.098 33.3737C110.242 33.5709 110.246 36.4785 110.124 36.63C109.847 36.6744 109.727 36.4289 109.675 36.4471C109.32 36.5699 109.079 36.6446 108.672 36.6405C107.974 36.1508 107.917 34.9486 108.452 34.3267C108.845 34.1 109.199 34.2332 109.629 34.2778C109.655 33.9567 109.657 33.6509 109.661 33.3291ZM109.454 36.0806C109.905 35.6443 109.806 34.5986 108.916 34.6206C108.892 34.6212 108.868 34.6221 108.844 34.6231C108.604 34.9938 108.561 35.6352 108.817 36.018C109.073 36.1668 109.12 36.1485 109.454 36.0806Z" fill="white"/>
<path d="M93.1471 33.3432C93.3262 33.3401 93.525 33.3167 93.6337 33.4554C93.6829 33.8078 93.7079 36.3933 93.6005 36.6138C93.3051 36.6703 93.339 36.3893 93.158 36.4423C92.7117 36.5733 92.6459 36.6364 92.1651 36.64C91.4931 36.1494 91.4963 35.209 91.7987 34.4582C91.9976 33.9639 92.6951 34.377 93.1018 34.2676C93.174 34.0309 93.1497 33.6067 93.1471 33.3432ZM92.8805 36.1146C93.4259 35.7014 93.3485 34.6078 92.3774 34.6118C92.112 35.0307 91.9484 35.7314 92.3902 36.0889C92.6056 36.1654 92.6516 36.1541 92.8805 36.1146Z" fill="white"/>
<path d="M82.8578 34.1387C82.9786 34.1556 83.3578 34.3459 83.3552 34.346C83.8021 34.3346 84.7752 33.8978 84.8353 34.647C84.9037 35.5016 85.1454 36.165 84.3341 36.6439C83.9498 36.6634 83.806 36.5917 83.4434 36.4531C83.329 36.5686 83.4377 36.9172 83.3507 37.2391C83.1711 37.3856 83.0816 37.3918 82.9121 37.2528C82.8201 36.9463 82.8565 34.6169 82.8578 34.1387ZM84.0949 36.1586C84.7004 35.6797 84.6314 34.5926 83.7913 34.6247C83.1199 35.0477 83.0886 36.0948 84.0949 36.1586Z" fill="white"/>
<path d="M40.8909 12.5078C41.3181 13.0208 42.2694 16.0826 42.3838 16.7946L42.3258 16.8597L42.1058 16.7655L40.3611 15.7603C40.3201 14.8462 40.3456 13.7972 40.3472 12.8734L40.8909 12.5078Z" fill="#E79311"/>
<path d="M75.123 33.3977C75.7017 33.3952 76.7911 33.2935 77.2131 33.7032C77.387 33.8718 77.4829 34.1051 77.4772 34.3472C77.4727 34.6072 77.3621 34.8543 77.1722 35.032C76.7624 35.4166 76.4043 35.3548 75.8756 35.3478L75.7356 35.3515C75.4856 35.7547 75.9299 36.3836 75.4932 36.6895C75.0476 36.6037 75.1378 36.1418 75.1371 35.7776C75.1352 34.984 75.1294 34.1912 75.123 33.3977ZM75.685 34.8771L76.6965 34.8536C77.0916 33.8385 76.4938 33.8816 75.6748 33.8968L75.685 34.8771Z" fill="white"/>
<path d="M53.3775 34.1903C53.5459 34.186 53.9945 34.1697 54.1299 34.2225C55.1378 34.6148 55.0812 36.1459 54.1791 36.6107C53.9899 36.625 53.5697 36.6654 53.4091 36.5953C52.4256 36.1663 52.4269 34.6467 53.3775 34.1903ZM54.0727 36.1315C54.3647 35.7962 54.4075 35.0316 54.0596 34.731C53.9093 34.601 53.6657 34.6257 53.4783 34.6357C53.2322 35.0111 53.108 35.8096 53.544 36.1029C53.7688 36.1675 53.8369 36.1538 54.0727 36.1315Z" fill="white"/>
<path d="M80.8121 34.2031C81.9034 34.1113 82.4629 34.5058 82.2966 35.7402C82.2397 36.1673 82.071 36.3827 81.7033 36.6046C80.5416 36.7369 80.0403 36.1699 80.2526 34.9684C80.3223 34.5759 80.4642 34.4008 80.8121 34.2031ZM81.493 36.136C82.0351 35.6947 82.0038 34.5574 80.9936 34.6298C80.6055 35.1677 80.4969 36.2438 81.493 36.136Z" fill="white"/>
<path d="M50.927 33.3008C51.458 33.3228 52.1497 33.6487 52.3398 34.1668C52.3049 34.3864 52.3416 34.3096 52.1911 34.4748C51.6729 34.5686 51.5041 33.8226 50.8664 33.7634C49.7931 34.1373 50.5721 37.3474 51.5804 35.824C51.6706 35.6294 51.6872 35.5705 51.8688 35.4654C52.0746 35.4397 51.9996 35.4221 52.1701 35.5269C52.3941 36.0011 52.012 36.3615 51.6023 36.5295C51.2464 36.6755 50.8886 36.6297 50.5138 36.6127C49.5724 35.9842 49.7293 34.8566 49.9286 33.8623C50.2935 33.5031 50.4307 33.4234 50.927 33.3008Z" fill="white"/>
<path d="M12.1284 2.11426L12.2299 2.16677C12.4042 2.48067 12.2786 2.80194 12.0167 3.00094C11.4897 3.40128 8.81997 5.06454 8.32248 5.03212C8.14244 4.91865 8.07243 4.92012 8.01367 4.74852C8.35611 4.08891 11.3075 2.46809 12.1284 2.11426Z" fill="#E79311"/>
<path d="M97.3483 34.1925C97.7326 34.1823 98.097 34.1458 98.4397 34.3282C98.7466 34.6223 98.856 36.3271 98.6066 36.6317C98.2984 36.6339 98.3694 36.3874 98.1296 36.437C97.5069 36.5661 97.3739 36.89 96.8042 36.3293C96.2768 34.9228 98.0158 35.4526 98.214 34.9096C97.9014 34.3477 97.3957 34.9351 96.9008 34.9223L96.8548 34.82C96.9507 34.4418 97.0319 34.3811 97.3483 34.1925ZM97.7569 36.1554C97.9666 36.0773 98.0874 36.0503 98.2275 35.8713L98.2543 35.7196C98.0644 35.4919 97.9672 35.5293 97.6687 35.5437C97.4711 35.6047 97.3586 35.6209 97.2441 35.7938C97.2339 35.9785 97.2147 35.9102 97.3458 36.0641C97.5267 36.1348 97.5638 36.1507 97.7569 36.1554Z" fill="white"/>
<path d="M103.47 34.1939C104.479 34.1759 104.788 34.1377 104.821 35.2787C104.83 35.5911 104.908 36.3857 104.749 36.6207L104.622 36.6439L104.37 36.4331C103.834 36.3796 103.729 36.9559 102.992 36.4073C102.26 35.0912 103.958 35.3608 104.31 35.0018C104.321 34.8171 104.32 34.8741 104.183 34.6942C103.758 34.5011 103.404 34.9745 103.038 34.9273C102.964 34.7626 102.99 34.7979 103.025 34.5902C103.183 34.369 103.247 34.3327 103.47 34.1939ZM103.884 36.1556C104.096 36.0761 104.225 36.0492 104.345 35.8553L104.358 35.7124C104.151 35.4689 104.045 35.5242 103.741 35.5477C103.553 35.6125 103.464 35.625 103.366 35.7917C103.369 35.9839 103.347 35.9143 103.486 36.0705C103.66 36.1341 103.7 36.1501 103.884 36.1556Z" fill="white"/>
<path d="M94.8706 34.2001L95.7216 34.1953C95.8763 34.3114 96.0669 34.4754 96.2203 34.6003C96.258 34.8798 96.2734 35.2683 96.2938 35.5577C95.8175 35.549 95.1411 35.4615 94.7562 35.7341L94.7536 35.958C95.2728 36.2272 95.4729 36.1373 95.923 35.8596C96.1078 35.8639 96.166 35.8716 96.283 35.9969C96.1557 36.5092 95.3604 36.6732 94.9019 36.5775C93.9845 36.3859 94.1718 35.4617 94.3144 34.7844C94.3777 34.486 94.6315 34.3376 94.8706 34.2001ZM95.6378 35.1913C95.8022 35.1288 95.7587 35.1726 95.8194 35.0384C95.673 34.6595 95.3495 34.6039 94.9927 34.63C94.8591 34.851 94.8144 34.8526 94.8041 35.0931C95.0158 35.2419 95.3508 35.1938 95.6378 35.1913Z" fill="white"/>
<path d="M87.2521 34.1992C87.2751 34.1978 87.2975 34.1966 87.3205 34.1957C88.5231 34.1413 88.6401 34.4312 88.6874 35.5817C88.2399 35.5534 87.403 35.4077 87.1447 35.8273L87.183 35.9156C87.5769 36.2432 87.816 36.1612 88.2156 35.9439C88.4355 35.8587 88.3799 35.8413 88.5685 35.8994L88.5947 36.0618C88.424 36.5864 87.8908 36.773 87.403 36.621C86.3621 36.2971 86.3551 34.7034 87.2521 34.1992ZM87.9637 35.1863C88.1389 35.1043 88.0986 35.1546 88.1638 34.9966C87.9778 34.639 87.7879 34.598 87.4004 34.626C87.2834 34.8348 87.2022 34.894 87.222 35.1047C87.3787 35.228 87.7444 35.1884 87.9637 35.1863Z" fill="white"/>
<path d="M61.2431 34.1917C62.5104 34.1655 62.6146 34.3542 62.7162 35.5582C62.3531 35.5513 61.551 35.5015 61.2506 35.5938C61.0771 36.2234 61.7384 36.2209 62.192 35.9283C62.334 35.8587 62.3548 35.8589 62.5116 35.8675C62.6568 36.0987 62.4791 36.37 62.2666 36.4858C60.6521 37.3646 60.0438 34.9318 61.2431 34.1917ZM62.0007 35.1949L62.1277 35.1047C62.1631 34.8191 61.9996 34.7543 61.7609 34.6326L61.3873 34.6244C61.2929 34.7737 61.2031 34.881 61.2133 35.0562C61.3884 35.2319 61.593 35.1949 61.8579 35.1952L62.0007 35.1949Z" fill="white"/>
<path d="M124.524 34.2005C125.778 34.1552 125.905 34.3361 126.009 35.5823C125.532 35.5505 124.757 35.4058 124.447 35.8236L124.486 35.9385C124.892 36.2527 125.136 36.1433 125.53 35.9162C125.682 35.859 125.702 35.852 125.865 35.8672L125.911 35.9617C125.838 36.2935 125.636 36.4936 125.32 36.6003C123.849 37.0974 123.464 34.8812 124.524 34.2005ZM125.358 35.1852C125.45 35.0397 125.424 35.087 125.41 34.89C125.2 34.5889 124.984 34.6103 124.656 34.6358C124.537 34.8679 124.495 34.8608 124.518 35.0957C124.754 35.2339 125.06 35.1885 125.358 35.1852Z" fill="white"/>
<path d="M78.3492 34.197C79.5493 34.1474 79.759 34.3564 79.798 35.5686C79.3492 35.5478 78.4758 35.4093 78.2131 35.827L78.2668 35.9321C78.6926 36.2234 78.9189 36.1725 79.3287 35.9337C79.4656 35.8679 79.4982 35.8427 79.6484 35.8705L79.697 35.9744C79.5896 36.5354 79.0071 36.7837 78.5084 36.6269C77.474 36.3018 77.4727 34.7173 78.3492 34.197ZM79.0864 35.1947L79.2399 35.1235C79.2782 34.847 79.1197 34.7658 78.8953 34.6412C78.7597 34.6333 78.621 34.6205 78.4861 34.6326C78.3812 34.7728 78.2751 34.8829 78.2776 35.0566C78.4483 35.2591 78.8262 35.1994 79.0864 35.1947Z" fill="white"/>
<path d="M118.057 34.1944C118.504 34.1774 119.909 34.2516 119.411 35.048C119.129 35.0909 118.842 34.672 118.39 34.6325C118.179 34.7014 118.243 34.6519 118.116 34.8195C118.119 34.8541 118.122 34.8934 118.125 34.9374C118.627 35.164 119.301 35.2761 119.599 35.7746C119.656 36.2247 119.275 36.4698 118.892 36.6204C118.79 36.6271 118.688 36.6316 118.587 36.6337C118.092 36.6427 117.475 36.3408 117.479 35.8086C118.172 35.5672 118.221 36.4844 118.954 36.0069L118.968 35.9159C118.64 35.5427 116.61 35.1745 118.057 34.1944Z" fill="white"/>
<path d="M99.8427 34.1927C100.245 34.1789 100.643 34.1406 100.977 34.4102C101.189 34.581 101.393 34.7658 101.203 35.0256C100.646 35.1197 100.69 34.5992 100.123 34.606C99.9693 34.689 99.9366 34.6996 99.8657 34.8578C100.02 35.1854 100.948 35.1283 101.353 35.7361C101.437 36.1906 101.053 36.4466 100.671 36.6213C100.416 36.6343 100.154 36.6539 99.9028 36.5974C99.6035 36.53 99.2436 36.1325 99.3363 35.8149C99.7033 35.7122 100.141 36.3118 100.755 36.0125L100.774 35.9153C100.402 35.538 98.2935 35.1943 99.8427 34.1927Z" fill="white"/>
<path d="M127.001 34.1978C127.466 34.1767 128.806 34.2738 128.313 35.0608C127.978 35.0735 127.762 34.5974 127.254 34.6263C127.05 34.7423 127.105 34.6803 126.992 34.8742C127.157 35.0992 129.759 35.723 127.834 36.615C127.336 36.6536 126.752 36.6201 126.45 36.1541C126.404 35.9671 126.389 35.9276 126.466 35.7553C126.953 35.703 127.511 36.4835 127.908 36.0072C127.935 35.5865 126.937 35.6705 126.473 35.0765C126.354 34.6422 126.653 34.4135 127.001 34.1978Z" fill="white"/>
<path d="M105.549 34.123C105.742 34.1615 105.78 34.2188 105.92 34.364C106.347 34.474 106.54 33.8995 107.271 34.3527C107.593 34.7657 107.725 36.1849 107.38 36.5941C107.17 36.6755 107.251 36.6751 107.05 36.6153C106.978 36.4686 106.987 35.5455 106.984 35.3187C106.989 35.0953 106.964 34.8486 106.82 34.6731C106.691 34.6082 106.587 34.5981 106.445 34.6361C105.672 34.8439 106.313 36.1108 105.984 36.5973C105.772 36.6931 105.858 36.6764 105.615 36.6378C105.463 36.4652 105.541 34.5147 105.549 34.123Z" fill="white"/>
<path d="M55.4107 34.1367C55.6019 34.1765 55.7801 34.4075 55.9374 34.3726C56.2752 34.2877 56.658 34.0579 56.9942 34.2437C57.5146 34.5315 57.5361 36.1518 57.2848 36.6004C57.1126 36.7064 57.1871 36.6923 56.9905 36.6594C56.8208 36.4702 56.8576 35.5194 56.849 35.1913C56.8398 34.974 56.8521 34.8563 56.7146 34.6848C55.6434 34.0791 56.0358 36.2327 55.8205 36.6176C55.6457 36.7101 55.7118 36.6905 55.4827 36.627C55.3325 36.3813 55.3908 34.5564 55.4107 34.1367Z" fill="white"/>
<path d="M114.958 34.1524C115.14 34.1533 115.217 34.142 115.375 34.23C115.786 34.8145 115.091 35.6964 115.692 36.1264C116.906 36.3474 116.191 34.8391 116.458 34.2134C116.626 34.1609 116.655 34.1703 116.83 34.2049C116.971 34.4184 116.923 34.5146 116.93 34.808C116.94 35.214 117.028 36.3934 116.841 36.6559C116.636 36.6398 116.676 36.6201 116.488 36.4497C115.997 36.2892 114.874 37.5842 114.949 34.9639C114.956 34.7203 114.955 34.4001 114.958 34.1524Z" fill="white"/>
<path d="M58.1128 34.1328C58.8188 34.5218 58.9093 34.1337 59.541 34.2043C60.2116 34.2793 60.3679 36.3626 59.84 36.6855L59.6732 36.6422C59.5515 36.44 59.5819 35.6185 59.5762 35.3187C59.552 34.929 59.4293 34.4356 58.9088 34.6188C58.4354 34.9591 58.6965 36.0097 58.5989 36.5721L58.469 36.6399C58.2248 36.6197 58.2703 36.6614 58.1245 36.5201C58.0851 36.2403 58.1135 34.5267 58.1128 34.1328Z" fill="white"/>
<path d="M68.6575 34.127C69.4771 34.554 69.7067 34.01 70.2629 34.2699C70.6983 34.4731 71.0186 36.4748 70.2789 36.6628L70.19 36.6028C70.1389 36.2291 70.1465 35.6471 70.1408 35.2553C70.1574 35.0375 70.0986 34.856 69.9528 34.6955C69.7655 34.5996 69.7258 34.6014 69.5129 34.6075C68.7521 35.0218 69.4202 36.4546 68.8761 36.6826L68.7157 36.6033C68.6031 36.2924 68.6479 34.5319 68.6575 34.127Z" fill="white"/>
<path d="M121.423 34.1338C121.491 34.159 121.742 34.314 121.786 34.3146C122.082 34.3163 122.392 34.2156 122.687 34.1986C123.396 34.1576 123.428 35.268 123.445 35.7523C123.456 36.0527 123.484 36.4318 123.27 36.6524C123.065 36.6617 123.138 36.6716 122.944 36.5644C122.802 36.372 122.863 35.5006 122.868 35.2015C122.841 34.8977 122.79 34.6248 122.437 34.6265C121.391 34.6314 122.091 36.2606 121.785 36.599C121.586 36.6723 121.649 36.6822 121.475 36.6241C121.363 36.4327 121.421 34.5303 121.423 34.1338Z" fill="white"/>
<path d="M63.7154 34.1957C64.2902 34.1699 64.7985 34.1062 65.0517 34.7336C65.1156 34.8918 65.1444 34.8458 65.1271 35.0315C64.7972 35.0649 64.3855 34.5899 63.8588 34.7004C63.3918 35.0688 63.5422 36.5864 64.4315 36.0479C64.6054 35.8349 64.7653 35.6099 65.0453 35.751C65.2441 36.3334 64.4993 36.7363 63.9405 36.6355C63.6978 36.5919 63.4839 36.4499 63.3493 36.2431C62.962 35.6456 63.0714 34.6044 63.7154 34.1957Z" fill="white"/>
<path d="M65.8995 33.7644C66.0357 33.7594 66.0798 33.7804 66.2045 33.8221C66.3215 34.2437 66.4449 34.1429 66.8368 34.2222C66.9385 34.4021 66.9225 34.3287 66.9206 34.5262C66.6732 34.6987 66.608 34.5515 66.3017 34.6731C66.2045 34.997 66.287 35.3856 66.31 35.7115C66.3445 36.197 66.6278 36.0259 66.9801 36.3017L66.8963 36.5206C66.5766 36.7344 66.232 36.6045 65.9839 36.3431C65.5703 35.907 66.0229 35.1377 65.7109 34.6911C65.5767 34.6298 65.5191 34.6139 65.4258 34.4989C65.4546 34.2701 65.7154 34.0735 65.8995 33.7644Z" fill="white"/>
<path d="M90.4512 33.3623C90.5036 33.3635 90.5554 33.3659 90.6072 33.3697C90.8374 33.3875 90.8553 33.353 90.9659 33.4836C91.042 34.3502 90.9876 35.6304 90.9608 36.5232C90.9589 36.5949 90.9192 36.5999 90.8444 36.6575C90.62 36.65 90.5848 36.6852 90.418 36.568C90.3764 36.167 90.324 33.6162 90.4512 33.3623Z" fill="white"/>
<path d="M85.5411 33.3174C85.7355 33.3263 85.7987 33.3236 85.9784 33.3924C86.1478 33.6083 86.0686 36.1866 86.0519 36.6393C85.9049 36.6443 85.7955 36.639 85.6485 36.6302C85.4516 36.4196 85.5379 33.8087 85.5411 33.3174Z" fill="white"/>
<path d="M67.414 34.1663C67.6154 34.1646 67.6665 34.1689 67.8634 34.2107C67.9689 34.4712 68.0047 36.4095 67.8858 36.667C67.6448 36.655 67.6704 36.6934 67.506 36.5704C67.3149 36.0992 67.4204 34.7805 67.414 34.1663Z" fill="white"/>
<path d="M120.131 34.1445C120.286 34.1569 120.401 34.175 120.553 34.2019C120.739 34.414 120.654 36.2171 120.644 36.6406C120.466 36.6505 120.326 36.6763 120.177 36.5801C120.096 36.2549 120.13 34.6055 120.131 34.1445Z" fill="white"/>
<path d="M34.2453 4.55722C33.46 4.02478 32.3603 3.55767 31.5844 2.97659C31.4637 2.8862 31.4539 2.73744 31.4453 2.59224L31.5326 2.54883C32.6479 3.14946 33.4436 3.65589 34.4442 4.45811L34.2453 4.55722Z" fill="#E79311"/>
<path d="M34.445 4.45801C34.7475 4.61239 35.0069 4.87293 35.2534 5.10891C34.9311 4.93684 34.553 4.74664 34.2461 4.55712L34.445 4.45801Z" fill="#E79311" fill-opacity="0.909804"/>
<path d="M122.13 7.54883C123.495 7.56084 124.859 7.56333 126.224 7.55643C127.462 10.6352 128.506 13.9384 129.706 17.0432C130.129 18.1391 130.475 19.3183 130.941 20.3981V20.5076C129.673 20.4981 128.406 20.4979 127.139 20.5069C126.904 19.7991 126.679 19.1092 126.407 18.4133C124.956 18.4444 123.31 18.4337 121.861 18.4077C121.67 19.1229 121.431 19.8245 121.147 20.5081C119.93 20.494 118.6 20.4803 117.391 20.5113C118.354 17.4918 119.657 14.4633 120.68 11.4488C121.104 10.1993 121.612 8.75168 122.13 7.54883ZM122.807 15.6249L124.168 15.6223L125.534 15.6056C125.032 14.406 124.649 12.8537 124.174 11.6002C123.817 12.396 123.084 14.7275 122.807 15.6249Z" fill="white"/>
<path d="M17.297 36.3984C17.8228 36.5982 20.5817 38.1539 21.0478 38.5337C21.0856 39.5061 21.0514 40.4802 21.0912 41.4436C20.3324 41.9158 19.5331 42.3641 18.7573 42.811H18.3205C16.5368 42.3453 15.3852 42.1226 13.5708 41.5346C13.5566 40.6451 13.5204 39.3901 13.5709 38.5138C14.444 37.979 16.3884 36.7372 17.297 36.3984Z" fill="#EEA01A"/>
<path d="M20.3384 0H21.1769C21.2422 0.711035 21.2151 2.08449 21.225 2.86178C20.2585 3.47977 18.374 4.60713 17.3646 5.0817C16.6646 4.70275 14.2361 3.34252 13.7053 2.91927C13.6782 2.69933 13.5344 1.62431 13.7385 1.49685C15.5953 0.337311 18.3142 0.383719 20.3384 0Z" fill="#E99815"/>
<path d="M22.5583 0H22.9749C23.0272 0.0260078 24.2159 0.175254 24.5412 0.23562C26.1429 0.53279 28.5571 0.951862 29.9196 1.84824C30.1436 1.99557 30.0841 2.60015 30.0753 2.87592C29.0952 3.55925 27.3336 4.51074 26.2521 5.10045C25.5973 4.68533 22.9785 3.2905 22.6187 2.88751C22.4143 2.36067 22.4694 0.580783 22.5583 0Z" fill="#E89815"/>
<path d="M126.281 23.6254C128.323 23.7224 130.676 22.9553 130.942 25.6546V26.0838C130.367 27.9342 129.054 27.6321 127.428 27.61L127.454 30.0471C127.067 30.0543 126.68 30.0702 126.295 30.095C126.311 27.9384 126.307 25.7818 126.281 23.6254ZM127.44 26.6406C128.106 26.6497 129.048 26.7842 129.516 26.3436C129.826 25.9591 130.005 25.2842 129.53 24.9487C128.9 24.5022 128.134 24.699 127.43 24.6481L127.44 26.6406Z" fill="#E79311"/>
<path d="M0 23.6445C0.727494 23.9435 2.62369 25.0593 3.31233 25.5269C3.31284 26.4806 3.32425 27.4556 3.31351 28.4074C2.79156 28.7281 1.93962 29.2786 1.40766 29.4922C0.824095 27.8482 0.177585 25.6965 0 23.9521V23.6445Z" fill="#EFA11B"/>
<path d="M130.941 36.1456C130.193 37.0318 128.824 36.6414 128.941 35.7694C129.521 35.612 129.776 36.4868 130.388 36.005C130.308 35.6089 129.237 35.5213 129.005 35.0663C128.895 33.7626 130.861 34.0073 130.918 34.8832C130.806 35.0317 130.841 34.9874 130.618 35.0361C130.276 34.9289 130.05 34.2888 129.531 34.8075C129.696 35.1932 130.405 35.1324 130.941 35.5887V36.1456Z" fill="white"/>
</g>
<defs>
<clipPath id="clip0_447_9191">
<rect width="130.941" height="42.8107" fill="white"/>
</clipPath>
</defs>
</svg>
