<svg width="43" height="43" viewBox="0 0 43 43" fill="none" xmlns="http://www.w3.org/2000/svg">
<g clip-path="url(#clip0_1225_11110)">
<path d="M21.4295 29.8098C21.7377 29.7862 24.9058 31.7064 25.3131 31.9759C25.3719 32.7409 25.329 33.5581 25.3581 34.3252C25.3692 34.6187 25.3456 34.8204 25.1006 34.978C24.0224 35.6718 22.7722 36.2995 21.6905 36.9745C21.3492 37.04 20.5927 36.5155 20.2603 36.3235L17.7984 34.8851C17.727 34.0636 17.7657 32.8416 17.7717 31.9919C18.3627 31.4168 20.6248 30.3149 21.4295 29.8098Z" fill="#ED9E19"/>
<path d="M30.2881 29.8083C30.5489 29.7646 33.8156 31.7187 34.1631 31.9793C34.2081 32.4124 34.2286 34.4128 34.16 34.695C34.066 35.0819 30.9865 36.6987 30.5415 36.9699C30.2338 37.055 29.5686 36.5735 29.2627 36.3984C28.3915 35.8998 27.5395 35.382 26.6556 34.9037C26.585 34.293 26.6148 32.6683 26.6202 31.9945C26.9827 31.6738 27.7593 31.3027 28.1809 31.0404C28.8707 30.6112 29.5679 30.1861 30.2881 29.8083Z" fill="#ED9E19"/>
<path d="M30.4275 16.8906C30.691 16.9313 31.3264 17.2832 31.5498 17.4444C32.0263 17.7881 34.1201 18.7373 34.2099 19.2115L34.2145 19.2367C34.2785 19.5734 34.26 21.4528 34.2628 21.8898C33.917 22.0758 33.5728 22.3398 33.2543 22.5089C32.3264 23.0014 31.4439 23.556 30.5219 24.0487C30.1801 24.0282 27.3375 22.2997 26.7756 21.9609C26.6749 21.5691 26.6202 19.2928 26.7711 19.0629C26.9857 18.7358 30.0601 17.0008 30.4275 16.8906Z" fill="#EC9E19"/>
<path d="M3.79904 16.8906C4.15783 16.8995 7.23248 18.7202 7.58174 19.0413C7.66038 19.4691 7.64261 21.3124 7.6465 21.8363C7.3076 22.2006 4.48603 23.7643 3.90338 24.0484C3.46513 24.013 0.756304 22.2857 0.241805 21.9468C0.0220462 21.8021 0.0983982 21.0995 0.100234 20.8058L0.101766 19.1274C0.157298 19.0606 0.333981 18.8735 0.394485 18.8393C1.10426 18.4393 3.14235 17.104 3.79904 16.8906Z" fill="#EC9E19"/>
<path d="M34.9714 23.3018C35.4305 23.4469 38.3073 25.1448 38.7601 25.4877C38.7844 25.8364 38.7659 26.3945 38.7653 26.758C38.7645 27.2496 38.803 27.9004 38.7615 28.3697C38.6528 28.4183 38.5784 28.4688 38.4779 28.5301C37.3659 29.2083 36.2237 29.8363 35.0973 30.4885C34.8087 30.5463 32.6818 29.1667 32.241 28.9537C32.0847 28.8781 31.5082 28.5359 31.3644 28.4073C31.1929 27.9111 31.2671 26.0886 31.2727 25.437C32.1035 24.8099 34.0285 23.7856 34.9714 23.3018Z" fill="#ED9E19"/>
<path d="M30.4238 4.38965C30.5549 4.43539 30.9683 4.59747 31.0682 4.66955C31.5558 5.02127 34.135 6.24414 34.2121 6.67003L34.2164 6.69461C34.2683 6.97869 34.2647 9.04908 34.2517 9.42213C33.1413 10.1001 31.7326 10.9437 30.5642 11.5389L30.4636 11.5574C30.1031 11.4596 27.3468 9.82243 26.891 9.50056C26.6636 9.33997 26.7554 6.95512 26.7627 6.47483C27.8061 5.86829 29.3568 4.84547 30.4238 4.38965Z" fill="#ED9E19"/>
<path d="M34.9126 10.6553C35.2267 10.6418 38.3179 12.5265 38.7571 12.8228C38.8037 13.6904 38.7584 14.7534 38.7851 15.6591C37.649 16.4505 36.3257 17.0938 35.1345 17.8165C35.0294 17.8459 34.9601 17.8483 34.8614 17.796C34.3837 17.5332 33.8988 17.2673 33.4302 16.9882C32.7345 16.5738 31.9816 16.1955 31.3098 15.7465C31.3069 15.7267 31.3039 15.7068 31.3017 15.6869C31.2601 15.3004 31.1781 12.9599 31.3553 12.7681C31.3639 12.7588 31.3734 12.7504 31.3824 12.7414C31.809 12.3193 34.2157 11.0212 34.9126 10.6553Z" fill="#EC9E19"/>
<path d="M8.40563 23.2891C8.81806 23.4687 9.44262 23.8451 9.8224 24.076C10.5543 24.5212 11.4572 24.9814 12.143 25.4666C12.1961 25.9786 12.1803 27.8267 12.1669 28.3973C10.9616 29.0771 9.66558 29.8725 8.45869 30.5049C8.07314 30.4307 5.34475 28.7459 4.70334 28.4302C4.62713 27.5479 4.66471 26.3589 4.67144 25.4521C4.78641 25.3445 5.10749 25.1675 5.26243 25.0691C6.28245 24.4281 7.33127 23.8341 8.40563 23.2891Z" fill="#ED9E19"/>
<path d="M21.5694 4.39844C21.7645 4.45927 21.9488 4.53732 22.1304 4.63059C22.571 4.85681 25.2752 6.34169 25.3394 6.60206C25.3422 6.61381 25.3438 6.62589 25.3462 6.63781C25.451 7.166 25.4106 8.83516 25.3899 9.44714C25.0792 9.59998 24.7476 9.83181 24.4377 10.0026C23.5349 10.5003 22.5849 11.1071 21.6683 11.5631C21.4982 11.5986 18.3159 9.74489 17.9967 9.49091C17.7879 9.10615 17.8762 6.99957 17.9018 6.45674C18.412 6.22517 19.0703 5.803 19.5547 5.50178C20.2636 5.06096 20.8296 4.76358 21.5694 4.39844Z" fill="#ED9E19"/>
<path d="M12.5701 29.8095C12.7962 29.7384 16.017 31.7039 16.3854 31.9554C16.4565 32.6947 16.4476 34.1602 16.3913 34.9087C16.2216 34.9848 16.0716 35.0667 15.9137 35.1641C14.8897 35.7957 13.8332 36.3675 12.796 36.9775C12.4189 37.0302 10.8688 35.9867 10.4294 35.7567C9.97404 35.5183 9.45692 35.1686 8.96594 34.9291C8.87304 34.3698 8.91071 32.6249 8.91799 31.9831C9.74999 31.2825 11.5847 30.3567 12.5701 29.8095Z" fill="#ED9E19"/>
<path d="M8.306 10.6585C8.70028 10.6317 11.0891 12.214 11.6526 12.4846C11.7437 12.5283 12.052 12.7725 12.1504 12.8514C12.2051 13.5445 12.167 14.9263 12.1619 15.6678C11.8435 15.931 11.1443 16.3213 10.7787 16.5344C10.0254 16.9733 9.24741 17.382 8.50692 17.8442C8.34015 17.8645 8.2312 17.7844 8.08605 17.7013C6.95616 17.0543 5.81758 16.4207 4.70438 15.7452C4.654 15.2724 4.58527 13.25 4.70576 12.8736C4.81128 12.544 7.81806 10.9137 8.306 10.6585Z" fill="#EC9E19"/>
<path d="M17.2657 23.2881C17.9983 23.6923 20.5883 25.0905 21.0162 25.5407C21.0828 26.327 21.0307 27.536 21.0612 28.3874C20.685 28.5334 19.6553 29.1758 19.2633 29.4018C18.6451 29.7582 17.9701 30.1244 17.365 30.495C16.9671 30.456 14.3015 28.7913 13.5672 28.4413C13.4915 27.7939 13.5239 26.1208 13.5436 25.4368C14.2491 24.8908 16.4817 23.6897 17.2657 23.2881Z" fill="#ED9E19"/>
<path d="M17.178 10.6557C17.1875 10.6552 17.197 10.6544 17.2065 10.6543C17.45 10.6525 20.7103 12.5372 20.9809 12.8132C21.0684 13.2548 21.0461 15.1049 21.0525 15.6713C19.8929 16.454 18.5619 17.0656 17.4181 17.8216C17.3946 17.834 17.3766 17.8427 17.3506 17.8482C17.1325 17.8937 13.9536 15.9718 13.5686 15.743C13.5276 15.3616 13.4754 13.0405 13.574 12.8612C13.7672 12.5096 16.7484 10.8847 17.178 10.6557Z" fill="#EC9E19"/>
<path d="M26.0558 23.32C26.2895 23.2788 29.5641 25.2192 29.8837 25.4952C29.9393 26.1419 29.9125 27.6759 29.8943 28.3634C28.6687 29.1108 27.4796 29.7541 26.2524 30.472C25.8532 30.5151 23.16 28.7568 22.4651 28.4599C22.3739 27.9577 22.4065 26.0383 22.4149 25.4385C23.1111 24.8661 25.1819 23.786 26.0558 23.32Z" fill="#ED9E19"/>
<path d="M12.7057 4.38965C13.2538 4.59221 16.0695 6.17754 16.4587 6.51585C16.532 6.94115 16.5289 8.95359 16.5011 9.43387C15.4931 10.1313 13.9156 10.9203 12.8064 11.5869C12.5578 11.5502 9.33515 9.66615 9.10232 9.46907C8.94826 8.99753 9.01193 7.07895 9.01896 6.49436C9.78729 6.02072 10.6067 5.60323 11.3662 5.11534C11.8349 4.81424 12.2019 4.61119 12.7057 4.38965Z" fill="#ED9E19"/>
<path d="M26.0309 10.6592C26.454 10.6479 29.0408 12.3578 29.6535 12.6555C29.6854 12.6709 29.8302 12.7979 29.8614 12.827C29.9419 13.5383 29.9047 14.8898 29.9114 15.6592C28.9939 16.3516 27.3142 17.162 26.2715 17.8204C26.2621 17.8236 26.2274 17.8359 26.2143 17.839C25.9976 17.89 22.8715 16.0291 22.455 15.7442C22.3565 14.9051 22.424 13.9208 22.4109 13.0663C22.4054 12.7015 22.8692 12.4442 23.1779 12.2779C24.1304 11.7649 25.0722 11.1544 26.0309 10.6592Z" fill="#EC9E19"/>
<path d="M21.5099 16.8818C21.6385 16.9038 22.1491 17.1078 22.2521 17.1856C22.7305 17.5469 25.2436 18.7286 25.3394 19.1781L25.3442 19.2016C25.4217 19.5634 25.3913 21.3689 25.4067 21.8871L21.7713 23.998C21.7351 24.0057 21.5959 24.0316 21.5757 24.0244C21.0764 23.8445 18.1511 22.1542 17.9552 21.9458C17.8156 21.5391 17.8701 19.5263 17.8941 19.0005C18.387 18.6197 19.1475 18.2213 19.6904 17.9115C20.2918 17.5683 20.9027 17.2101 21.5099 16.8818Z" fill="#EC9E19"/>
<path d="M12.648 16.8818C12.6585 16.8831 12.6692 16.8843 12.6797 16.8857C13.005 16.9305 16.1796 18.7079 16.3577 18.987C16.5113 19.2278 16.5574 21.4867 16.4692 21.7769C16.3521 22.1619 13.4123 23.7046 12.855 24.0119C12.462 24.1005 9.64286 22.2868 9.12348 21.9805C8.93836 21.8713 9.01529 19.3754 9.03201 19.0022C9.17733 18.8844 9.31751 18.8007 9.47416 18.7017C10.5028 18.0514 11.5968 17.4891 12.648 16.8818Z" fill="#EC9E19"/>
<path d="M39.2071 16.8926C39.6659 16.9255 42.2579 18.4714 42.6224 18.8084C42.7767 19.4227 42.8147 21.3267 42.8043 22.001C42.709 22.084 42.4243 22.3244 42.3331 22.3731C41.9096 22.5989 39.5694 24.0269 39.2847 24.0362C38.7807 23.8365 38.4217 23.5754 37.9535 23.3151C37.1695 22.8792 36.4045 22.3884 35.6211 21.9581C35.5086 21.4418 35.5176 19.6948 35.5625 19.1156C36.033 18.4902 37.9816 17.7081 38.6532 17.1716C38.7621 17.0847 39.0715 16.9387 39.2071 16.8926Z" fill="#EC9E19"/>
<path d="M17.2607 36.2842C17.5978 36.3733 20.7009 38.1903 20.9533 38.4699C21.1095 38.8667 21.0252 40.8274 21.0314 41.3284C21.0326 41.4207 18.9752 42.5792 18.6684 42.7083C18.2973 42.6185 17.9658 42.5787 17.5867 42.5511C17.4307 42.4909 17.2608 42.4479 17.0955 42.4232C15.8597 42.2384 14.7406 41.8017 13.5562 41.4297C13.509 40.5106 13.5138 39.3285 13.5472 38.4065C13.7076 38.2975 13.887 38.1832 14.0578 38.0926C15.1039 37.5378 16.1805 36.7645 17.2607 36.2842Z" fill="#EE9F1A"/>
<path d="M26.0726 36.2861C26.406 36.3516 29.4193 38.0862 29.7992 38.4543C29.9598 38.6099 29.9222 40.7117 29.9071 41.1122C29.5741 41.1975 29.0022 41.4837 28.6472 41.601C27.8341 41.8696 26.9896 42.1518 26.1556 42.3437C25.8058 42.36 24.7998 42.6882 24.5395 42.5498C24.0519 42.2906 22.8724 41.7534 22.4978 41.4052C22.4627 41.307 22.4021 41.0957 22.4077 40.9934C22.4453 40.2982 22.3454 39.0884 22.4575 38.4534C22.4894 38.2729 24.0026 37.463 24.2265 37.3378L26.0726 36.2861Z" fill="#EEA01B"/>
<path d="M3.70909 29.8145C4.09806 29.826 7.00562 31.6185 7.51897 31.9375C7.56726 32.4331 7.56466 34.395 7.52879 34.9108C7.15445 35.0622 6.24974 35.6488 5.82941 35.8848C5.54273 36.0055 5.60181 36.0087 5.36359 35.7499C5.26894 35.6471 5.17621 35.5361 5.08528 35.4295C3.88429 34.02 2.85939 32.4696 2.0332 30.8124C2.50574 30.4408 3.16478 30.0739 3.70909 29.8145Z" fill="#F0A31D"/>
<path d="M39.322 29.8138C39.5842 29.7967 40.5212 30.3849 40.791 30.5419C40.3338 31.433 38.0092 35.6058 37.1555 35.7311C36.6751 35.5091 36.2219 35.1393 35.6868 34.922C35.6174 34.1193 35.6543 32.8373 35.6543 32.0059C36.1301 31.6095 38.7045 30.0762 39.322 29.8138Z" fill="#F1A41D"/>
<path d="M6.58963 5.9502C6.84022 6.0469 7.54016 6.35389 7.58657 6.5513C7.68649 6.97627 7.69397 9.10189 7.61491 9.41962C7.34948 9.64647 4.05778 11.5581 3.83794 11.5912C3.41015 11.3395 3.08148 11.1229 2.61914 10.9309C3.50012 9.46941 4.30394 8.21804 5.48575 6.96549C5.81226 6.61941 6.16858 6.16099 6.58963 5.9502Z" fill="#E99714"/>
<path d="M36.3262 6.18457C36.5183 6.19966 36.8875 6.66506 37.023 6.81076C38.2272 8.1052 39.385 9.64003 40.2062 11.2058C40.0746 11.3164 39.7144 11.5078 39.5465 11.6097C39.5125 11.6029 39.4926 11.597 39.4616 11.5798C38.2768 10.9208 37.1044 10.2348 35.9401 9.54086C35.6857 9.38923 35.706 8.39171 35.7097 8.11047C35.7162 7.61296 35.6648 7.07745 35.7737 6.59215C35.8141 6.41229 36.1686 6.26129 36.3262 6.18457Z" fill="#E89615"/>
<path d="M8.35629 36.2881C8.68812 36.3425 11.2914 37.9052 11.7815 38.211C11.9377 38.3084 12.1039 38.4379 12.136 38.6413L12.1402 38.6694C12.2091 39.111 12.1478 40.2727 12.1849 40.8335C11.9378 40.6684 11.4982 40.4596 11.2285 40.3241C10.1846 39.6652 9.1054 39.1497 8.13952 38.3351C7.70736 37.9706 7.24238 37.5255 6.77539 37.2311C7.18268 36.9393 7.91188 36.5222 8.35629 36.2881Z" fill="#F2A51D"/>
<path d="M2.04831 12.1152C2.55346 12.3281 2.84255 12.5269 3.2969 12.8269C3.35072 13.5997 3.31236 14.8331 3.32461 15.6496C2.94753 15.9758 1.67082 16.6718 1.1921 16.9194C0.878269 17.1223 0.595543 17.273 0.267578 17.448C0.438648 16.1798 1.34192 13.1511 2.04831 12.1152Z" fill="#EB9A16"/>
<path d="M34.9695 36.2842C35.3366 36.3998 35.7976 36.7021 36.136 36.9106C35.3036 37.9028 33.1902 39.349 32.0501 39.9967C31.7784 40.1175 31.5231 40.2725 31.2906 40.4578C31.2618 39.7743 31.2579 39.09 31.2789 38.4062C32.2162 37.8095 33.9829 36.7512 34.9695 36.2842Z" fill="#F2A51D"/>
<path d="M42.5041 24.1719L42.5815 24.1833C42.7441 24.6001 41.8061 28.133 41.5335 28.7016C41.4593 28.8563 41.4711 28.8696 41.3336 28.9255C41.1469 28.9026 40.9746 28.7808 40.81 28.6833C40.7296 28.6433 40.4021 28.4785 40.3853 28.4275C40.2074 27.8893 40.2817 25.9316 40.3041 25.4282C40.7955 25.0363 41.9544 24.4199 42.5041 24.1719Z" fill="#F2A51D"/>
<path d="M40.6837 12.5303C41.2355 12.7046 42.051 15.7996 42.2098 16.4296C42.2362 16.5337 42.2771 16.6704 42.2424 16.776C42.135 16.8077 42.1726 16.7999 42.0409 16.7368C41.4758 16.4115 40.8738 16.0907 40.3261 15.7424C40.242 15.0715 40.2643 13.6194 40.3114 12.9063C40.3232 12.7283 40.5311 12.6237 40.6837 12.5303Z" fill="#F2A51D"/>
<path d="M12.1004 2.09388C12.1497 2.08727 12.1578 2.09715 12.2105 2.11297C12.2975 2.23825 12.3411 2.71281 12.2285 2.81516C11.3927 3.57476 10.1788 4.05407 9.21533 4.65667C8.99191 4.79643 8.6008 5.00618 8.42333 5.05794L8.34586 4.99912C8.21555 4.9285 7.99334 4.84723 7.84961 4.78966C9.04062 3.73357 10.6713 2.77555 12.1004 2.09388Z" fill="#E28707"/>
<path d="M31.293 2.49219C31.7204 2.55439 34.7788 4.57796 34.9698 4.96087C34.4411 4.8546 32.5323 3.49581 31.9211 3.25033C31.5755 3.11155 31.2965 2.89302 31.293 2.49219Z" fill="#E28707"/>
<path d="M20.2846 0H21.1094C21.1641 0.666832 21.2044 2.08884 21.1091 2.76791C21.0705 3.04307 19.9486 3.60776 19.6202 3.79446C18.856 4.23626 18.0854 4.6667 17.3086 5.0857C16.7911 4.6675 13.751 3.18881 13.6315 2.83532C13.6291 2.82823 13.6269 2.82107 13.6246 2.81398C13.5368 2.55106 13.4811 1.78338 13.606 1.53304C13.8804 0.983037 17.9305 0.245087 18.7605 0.142525C19.219 0.0858731 19.8292 0.1674 20.2529 0.0122109C20.2635 0.00831339 20.274 0.00407031 20.2846 0Z" fill="#E99815"/>
<path d="M22.5067 0H22.8153C22.9098 0.0338712 24.0649 0.163503 24.3051 0.191839C25.5418 0.337765 28.949 1.15119 29.9326 1.83513C29.9671 2.19587 29.9659 2.55913 29.9289 2.91962C29.5308 3.19785 28.8765 3.56046 28.4347 3.81441C27.762 4.2011 26.8978 4.75529 26.2012 5.0538C25.6743 4.77126 22.7978 3.17145 22.5323 2.90401C22.389 2.56029 22.4209 0.370315 22.5067 0Z" fill="#E89715"/>
<path d="M0 23.6279C0.381037 23.6982 3.0424 25.226 3.27102 25.4985C3.34648 25.7776 3.3474 28.0069 3.32331 28.3869C2.72711 28.7204 2.0059 29.1048 1.43472 29.4721C1.09758 28.4942 0.794766 27.7083 0.519958 26.6828C0.341432 26.0167 0.190502 24.7346 0 24.1843V23.6279Z" fill="#EFA11B"/>
</g>
<defs>
<clipPath id="clip0_1225_11110">
<rect width="42.978" height="42.8107" fill="white"/>
</clipPath>
</defs>
</svg>
